HIERARCHY
ROOT Hips
{
	OFFSET -0.179506 -22.333345 2.821913
	CHANNELS 6 Xposition Yposition Zposition Zrotation Yrotation Xrotation 
	JOINT LeftUpLeg
	{
		OFFSET 6.951974 -9.140623 -0.681533
		CHANNELS 3 Zrotation Yrotation Xrotation
		JOINT LeftLeg
		{
			OFFSET 3.427654 -37.519855 -0.449580
			CHANNELS 3 Zrotation Yrotation Xrotation
			JOINT LeftFoot
			{
				OFFSET -1.359570 -39.796059 -4.369333
				CHANNELS 3 Zrotation Yrotation Xrotation
				JOINT LeftToe
				{
					OFFSET 2.635814 -5.579078 11.928840
					CHANNELS 3 Zrotation Yrotation Xrotation
					End Site
					{
						OFFSET 0.000000 0.000000 0.000000
					}
				}
			}
		}
	}
	JOINT RightUpLeg
	{
		OFFSET -6.767048 -9.052170 -0.431982
		CHANNELS 3 Zrotation Yrotation Xrotation
		JOINT RightLeg
		{
			OFFSET -3.829005 -38.256897 -0.885003
			CHANNELS 3 Zrotation Yrotation Xrotation
			JOINT RightFoot
			{
				OFFSET 1.577377 -39.841461 -4.231180
				CHANNELS 3 Zrotation Yrotation Xrotation
				JOINT RightToe
				{
					OFFSET -2.537174 -4.814398 12.334795
					CHANNELS 3 Zrotation Yrotation Xrotation
					End Site
					{
						OFFSET 0.000000 0.000000 0.000000
					}
				}
			}
		}
	}
	JOINT Spine
	{
		OFFSET -0.253288 10.896323 -2.669631
		CHANNELS 3 Zrotation Yrotation Xrotation
		JOINT Spine1
		{
			OFFSET 0.548704 13.518043 0.109247
			CHANNELS 3 Zrotation Yrotation Xrotation
			JOINT Spine2
			{
				OFFSET 0.145701 5.292222 2.542457
				CHANNELS 3 Zrotation Yrotation Xrotation
				JOINT Neck
				{
					OFFSET -0.277840 21.387037 -4.285703
					CHANNELS 3 Zrotation Yrotation Xrotation
					JOINT Head
					{
						OFFSET 0.515184 6.496960 5.134897
						CHANNELS 3 Zrotation Yrotation Xrotation
						End Site
						{
							OFFSET 0.000000 0.000000 0.000000
						}
					}
				}
				JOINT LeftShoulder
				{
					OFFSET 7.884473 12.174932 -3.408961
					CHANNELS 3 Zrotation Yrotation Xrotation
					JOINT LeftArm
					{
						OFFSET 9.097692 3.046888 -0.886815
						CHANNELS 3 Zrotation Yrotation Xrotation
						JOINT LeftForeArm
						{
							OFFSET 25.961220 -1.277207 -2.745643
							CHANNELS 3 Zrotation Yrotation Xrotation
							JOINT LeftHand
							{
								OFFSET 24.923361 0.898606 -0.117091
								CHANNELS 3 Zrotation Yrotation Xrotation
								End Site
								{
									OFFSET 0.000000 0.000000 0.000000
								}
							}
						}
					}
				}
				JOINT RightShoulder
				{
					OFFSET -8.175920 11.883285 -3.861528
					CHANNELS 3 Zrotation Yrotation Xrotation
					JOINT RightArm
					{
						OFFSET -9.601238 3.255117 -0.914307
						CHANNELS 3 Zrotation Yrotation Xrotation
						JOINT RightForeArm
						{
							OFFSET -25.374195 -1.332924 -2.140099
							CHANNELS 3 Zrotation Yrotation Xrotation
							JOINT RightHand
							{
								OFFSET -25.529810 0.777228 -0.555919
								CHANNELS 3 Zrotation Yrotation Xrotation
								End Site
								{
									OFFSET 0.000000 0.000000 0.000000
								}
							}
						}
					}
				}
			}
		}
	}
}
MOTION
Frames: 15
Frame Time: 0.033333
5.661765 33.073666 82.686134 -175.331208 11.229872 118.865869 11.239283 14.337765 -62.469604 -7.850191 23.101603 64.462446 10.377956 -2.322418 -34.417274 nan nan nan -14.225349 0.877871 -42.064367 9.322812 12.008137 63.510034 9.074400 10.769749 4.544639 nan nan nan 4.906048 4.045528 65.879833 7.365570 -6.120291 10.074296 9.866280 -0.218863 -7.240526 -19.306552 11.233264 -5.990770 3.516926 10.294473 -42.667042 -1.326571 -47.979513 -8.850358 -15.516368 -32.353355 -9.404286 33.814554 -55.072459 -26.037627 1.431402 1.888099 -5.298335 13.172835 35.898733 0.356387 18.127243 25.093315 -15.683270 -42.612895 36.607746 -49.051648 9.601002 -11.918302 -18.013448 
4.314759 34.634792 83.123779 -174.530570 11.399268 118.774640 10.497022 13.240552 -60.610738 -7.902604 22.348685 63.442723 10.440164 -1.989983 -35.052966 nan nan nan -13.515293 0.973610 -42.536930 8.059987 9.757794 64.715738 8.395117 8.865127 3.013133 nan nan nan 4.818808 3.838391 65.409571 7.830269 -6.047593 9.457750 10.025793 -0.393682 -6.905543 -18.974212 11.940637 -6.016861 2.786517 10.380026 -42.645866 -1.037182 -46.932646 -8.702766 -17.933991 -33.093244 -8.267921 36.867708 -56.858773 -27.000514 0.907300 2.267652 -8.028690 13.280670 34.273103 -0.020003 19.612757 24.982361 -14.820317 -44.653771 37.574224 -49.479731 11.404951 -11.700059 -19.667039 
2.940505 36.175640 83.508011 -173.665863 11.557169 118.650826 9.879605 12.018067 -58.815467 -7.741310 21.704971 62.607804 10.448816 -1.718094 -35.456957 nan nan nan -12.975939 1.168762 -43.093134 6.112521 6.885625 65.899626 7.725876 6.042040 1.428118 nan nan nan 4.716145 3.355011 64.803515 8.198265 -5.930257 9.154815 10.098176 -0.536814 -6.595721 -18.608948 12.394916 -6.303749 2.013658 10.460928 -42.420511 -1.042721 -45.786471 -8.431636 -20.406428 -34.076086 -7.003047 40.814073 -58.712269 -29.770988 1.898174 2.326827 -9.026003 13.088276 32.621551 -0.826750 21.340403 24.822796 -13.367289 -46.662806 38.641023 -50.418996 11.308346 -11.465447 -19.889091 
1.547962 37.707260 83.876938 -172.772776 11.664832 118.497724 9.244555 10.734292 -56.994840 -7.575303 20.988164 61.744014 10.446973 -1.375917 -35.744435 nan nan nan -12.580990 1.364520 -43.789781 3.791988 3.835402 67.254182 7.026014 3.253194 -0.526431 nan nan nan 4.683874 2.816312 64.140506 8.555962 -5.719627 9.044355 10.260625 -0.761514 -6.375157 -18.263946 12.549732 -6.447691 1.215275 10.501425 -42.268507 -1.064869 -44.487938 -8.239501 -23.382052 -35.434870 -5.553866 45.963044 -60.480427 -34.318065 3.055405 2.098913 -8.958837 12.654662 30.891712 -1.857272 23.032627 24.609223 -11.896949 -48.774118 39.786086 -51.816203 10.578415 -11.348508 -19.089486 
0.213892 39.270065 84.242683 -172.137255 11.761984 118.220864 8.442378 9.805190 -55.036838 -7.364104 20.168879 61.021996 10.330290 -1.309710 -36.060471 nan nan nan -12.186751 1.813211 -44.654908 1.254501 1.149233 68.884086 6.407199 0.983501 -3.120599 nan nan nan 4.466472 2.158171 64.316804 8.611207 -5.534144 7.457528 10.343641 -1.040998 -5.910117 -17.864789 12.631843 -5.488966 0.551273 10.969755 -42.524203 -1.393765 -43.326277 -7.773848 -26.339563 -35.871099 -3.887845 52.130504 -62.455569 -38.990909 2.739725 1.960280 -10.561946 12.811101 29.781557 -1.996962 24.479152 23.892927 -10.853015 -51.128746 41.014947 -53.211395 10.033909 -11.081694 -19.158648 
-1.109279 40.846367 84.591545 -171.478458 11.943597 117.946037 7.746570 8.900749 -53.038700 -7.237986 19.173420 60.177781 9.861383 -1.395685 -36.240766 nan nan nan -11.699784 2.319949 -45.659749 -0.916373 -1.175005 70.559726 5.563805 -0.742299 -5.918535 nan nan nan 4.368034 1.686337 64.129332 8.812875 -5.193615 6.949906 10.596065 -1.512916 -5.902176 -17.589316 12.971194 -5.608945 -0.399031 11.249107 -42.378172 -0.975321 -42.273425 -8.148826 -29.868242 -36.057079 -1.905519 59.385653 -63.841165 -43.471866 2.349010 1.581555 -11.581048 12.313560 28.767680 -2.670229 26.141602 23.097735 -9.781937 -53.695809 42.151944 -54.241316 11.601844 -10.352749 -20.674105 
-2.451695 42.412518 84.912361 -170.981544 12.067204 117.744355 6.896364 8.038519 -51.071136 -7.144487 18.092802 59.087090 9.376632 -1.367533 -36.225854 nan nan nan -11.304683 2.857095 -47.007395 -2.551865 -2.893843 72.254566 4.734674 -1.512474 -8.814413 nan nan nan 4.210898 1.239709 63.580607 9.010363 -5.016205 6.840680 10.735254 -1.775556 -5.732509 -17.631383 13.599470 -6.352285 -1.253321 11.084514 -42.292979 -0.351600 -41.232548 -8.838141 -33.391555 -36.260381 0.042787 66.808747 -65.084948 -47.908082 2.743283 1.621686 -10.804904 11.532799 27.602608 -3.588827 27.853049 22.369122 -8.941552 -56.406446 43.490067 -55.189693 13.969636 -9.525651 -22.349298 
-3.829221 44.010597 85.208817 -170.520675 12.107145 117.279692 5.896457 7.202182 -48.730632 -7.231922 16.802424 57.813674 9.004431 -0.981055 -36.082514 nan nan nan -10.985428 3.462943 -48.246311 -3.546564 -4.094063 73.872472 4.001404 -1.456087 -11.397413 nan nan nan 4.103167 0.498569 63.412421 9.056306 -4.971036 6.282267 10.680759 -1.989570 -5.272267 -17.893152 14.319939 -6.766899 -1.978377 10.863179 -42.399472 -0.013626 -40.507975 -9.087473 -35.705975 -36.156649 1.257270 73.730166 -66.450468 -52.368884 4.641533 1.026365 -10.837282 10.882653 26.501682 -4.062164 29.197780 21.572135 -8.409675 -58.940589 45.163290 -56.202215 14.162100 -8.600805 -24.262736 
-5.241581 45.657761 85.426506 -170.039554 12.098844 116.723560 4.850356 6.400726 -46.158163 -7.582210 15.361536 56.351457 8.557104 -0.536097 -35.845326 nan nan nan -10.626216 4.067153 -49.486662 -4.079469 -4.903033 75.298607 3.183813 -1.042167 -13.451568 nan nan nan 4.136181 -0.273574 63.080340 9.127443 -5.032549 6.204600 10.665581 -2.218287 -5.175042 -18.025675 14.657043 -6.590493 -2.714952 10.850573 -42.663918 0.118825 -40.162444 -9.016194 -37.465286 -35.646712 1.993297 82.365617 -67.315863 -58.934735 5.127197 1.292571 -11.428858 10.345019 25.681465 -3.997467 30.139133 20.562351 -8.353120 -61.970497 46.730541 -58.091859 14.740285 -7.989055 -26.664796 
-6.662860 47.332867 85.590057 -169.627140 12.112947 116.128028 3.801492 5.743997 -43.435653 -7.743587 14.056513 54.849264 8.232392 -0.019925 -35.653523 nan nan nan -10.176386 4.606476 -50.865509 -4.344844 -5.463524 76.524377 2.591105 -0.308174 -14.929160 nan nan nan 4.126933 -1.068488 62.762351 9.124381 -5.091034 6.198189 10.652282 -2.412391 -5.146937 -18.121526 15.116376 -6.788673 -3.182332 10.974794 -42.521837 0.032783 -39.918047 -9.118638 -39.102106 -34.971045 2.713145 92.189891 -67.223172 -67.351537 4.161687 1.976640 -10.541179 10.115018 25.129097 -3.993397 30.786186 19.207261 -8.172281 -65.548545 47.978909 -60.737749 16.116233 -7.950714 -27.912872 
-8.105874 49.031513 85.705254 -169.197928 11.989471 115.580935 2.604290 4.916485 -40.654897 -7.674916 12.837697 53.262775 8.313717 0.932042 -35.460716 nan nan nan -9.946941 4.906017 -52.411776 -4.396157 -6.091026 77.533779 2.286915 0.672810 -15.881049 nan nan nan 4.100042 -1.892142 62.457354 9.151131 -5.293328 5.762996 10.628569 -2.522762 -4.876718 -18.356274 15.538138 -6.652308 -3.586264 11.124967 -42.676795 -0.210494 -39.446924 -9.047453 -40.764784 -34.299704 3.848638 100.593520 -66.753207 -75.930556 4.866616 2.245521 -9.840631 9.996851 24.398557 -3.953053 31.146729 17.846503 -7.814310 -69.190934 49.266953 -64.163404 15.592387 -8.318614 -28.203813 
-9.523172 50.748760 85.846878 -168.872272 12.025127 114.735092 1.604926 4.385417 -37.374416 -7.871518 11.552205 51.383291 8.414302 1.534674 -35.227408 nan nan nan -9.669730 5.569168 -53.810652 -4.255189 -6.880152 78.254339 2.433681 1.440270 -16.308454 nan nan nan 3.826771 -2.739457 62.508742 9.169120 -5.090088 5.321776 10.569204 -2.519529 -4.427185 -18.515694 16.168258 -6.935717 -4.088525 10.983966 -42.500390 0.416073 -38.364139 -9.416839 -42.857342 -34.371864 5.080634 106.973481 -66.020622 -81.846617 3.352167 2.199038 -11.046955 9.251671 23.038507 -4.593787 32.338992 17.106246 -7.133360 -72.810929 50.103609 -66.862201 17.057500 -7.768318 -29.114311 
-10.958998 52.475395 85.954735 -168.520840 12.197298 113.852943 0.639033 4.019133 -34.007135 -7.794027 10.303952 49.481865 8.267608 1.941850 -35.118085 nan nan nan -9.295581 6.325773 -55.285209 -4.388920 -7.853563 78.772549 2.971833 2.219556 -16.315700 nan nan nan 3.627011 -3.792016 62.469640 9.109744 -4.763955 5.084717 10.446996 -2.522071 -4.037661 -18.708507 16.793407 -7.007776 -4.791606 10.838144 -42.414152 1.149955 -37.052062 -9.779026 -44.816412 -34.670128 5.916793 111.806369 -65.491064 -86.122806 -0.951106 1.555860 -14.489401 8.315406 21.558214 -5.079622 33.846360 16.737642 -6.328190 -76.822253 50.726685 -69.900796 18.635023 -6.937666 -30.952796 
-12.457989 54.189281 86.033844 -168.218009 12.323325 113.097614 -0.574080 3.600432 -30.757497 -7.528671 8.902794 47.459703 7.937168 2.710407 -34.793021 nan nan nan -8.935651 6.995316 -56.942622 -4.616974 -8.745937 78.999184 3.528866 3.055708 -16.371338 nan nan nan 3.615561 -4.731365 62.188770 9.021494 -4.549492 5.032145 10.434362 -2.712710 -3.837147 -18.859434 17.203034 -6.901275 -5.676496 11.072152 -42.402339 1.734331 -36.056785 -10.018356 -46.783240 -34.371545 6.847582 117.430956 -63.839337 -90.800421 0.110176 0.992843 -13.973761 7.235291 20.440957 -5.410282 35.142850 16.170797 -5.812275 -80.837607 51.541556 -73.176145 17.849938 -6.559747 -31.507781 
-14.001705 55.935463 86.091347 -167.790280 12.511561 112.389333 -1.740858 3.139197 -27.411698 -7.425511 7.198536 45.239199 7.608349 3.660080 -34.077895 nan nan nan -8.593107 7.606780 -58.566914 -4.698315 -9.896384 78.889399 3.766954 3.484516 -16.653507 nan nan nan 3.699082 -5.664663 61.889420 9.099024 -4.390720 5.111762 10.492953 -2.859534 -3.841301 -18.829929 17.541351 -6.824894 -6.683190 11.628424 -42.194731 2.250282 -35.100002 -10.310587 -48.878677 -34.179944 7.680940 121.661836 -62.333177 -93.867453 -1.188233 1.259788 -14.639191 6.355947 19.537303 -5.534947 35.796881 15.601755 -5.664976 -84.703810 51.972091 -75.543939 19.776051 -5.603620 -31.756833 
